<?xml version="1.0" encoding="UTF-8" standalone="no"?><!DOCTYPE svg PUBLIC "-//W3C//DTD SVG 1.1//EN"
        "http://www.w3.org/Graphics/SVG/1.1/DTD/svg11.dtd">
<svg width="100%" height="100%" viewBox="0 0 512 256" version="1.1" xmlns="http://www.w3.org/2000/svg"
     xml:space="preserve" xmlns:serif="http://www.serif.com/"
     style="fill-rule:evenodd;clip-rule:evenodd;stroke-linejoin:round;stroke-miterlimit:2;">
    <rect id="Logo" x="0" y="0" width="512" height="256" style="fill:none;"/>
    <g id="Qwik">
        <g id="Reveal">
            <path id="Logotype-Fade-2" serif:id="Logotype Fade 2"
                  d="M253.521,232.008c0.522,0 0.944,-0.428 0.944,-0.944l0,-78.57c0.002,-0.408 -0.261,-0.772 -0.648,-0.9c-7.919,-2.562 -16.517,-3.84 -25.903,-3.84c-10.002,0 -17.43,2.329 -22.164,7.308l-0.006,0.013c-4.62,4.973 -6.798,13.552 -6.798,24.99c0,11.406 1.825,19.627 5.716,24.379c3.928,4.771 10.097,7 18.192,7c5.33,0.051 10.571,-1.383 15.132,-4.142l0,23.762c0,0.516 0.428,0.944 0.944,0.944l14.591,0Zm-15.548,-69.273l0,28.924c0,1.152 -0.862,2.392 -2.77,3.399c-1.87,0.988 -4.557,1.63 -7.654,1.63c-4.803,0 -7.774,-1.227 -9.467,-3.424c-0.856,-1.102 -1.53,-2.751 -1.989,-5.042c-0.46,-2.285 -0.686,-5.149 -0.686,-8.624c0,-3.689 0.258,-6.748 0.749,-9.197c0.485,-2.455 1.196,-4.236 2.058,-5.401c1.687,-2.279 4.866,-3.512 9.694,-3.512c3.67,0 7.025,0.39 10.071,1.246l-0.006,-0Zm36.44,-13.364l-14.805,0c-0.516,0.002 -0.94,0.428 -0.94,0.944c0,0.112 0.02,0.223 0.059,0.327c6.647,17.77 12.841,37.264 18.582,58.603c0.113,0.407 0.485,0.691 0.906,0.692l17.109,0c0.403,0 0.755,-0.252 0.894,-0.629c4.037,-11.341 7.482,-22.885 10.323,-34.583c3.651,13.452 6.402,24.877 8.183,34.444c0.082,0.448 0.476,0.776 0.932,0.774l17.109,0c0.384,-0 0.732,-0.235 0.875,-0.592c7.72,-19.255 14.513,-38.869 20.357,-58.773c0.025,-0.086 0.038,-0.175 0.038,-0.264c0,-0.518 -0.426,-0.944 -0.944,-0.944l-14.352,0c-0.432,-0.002 -0.813,0.293 -0.919,0.711c-3.11,12.218 -7.22,25.537 -12.426,40.066c-3.14,-13.554 -6.936,-26.948 -11.374,-40.135c-0.129,-0.383 -0.49,-0.642 -0.894,-0.642l-12.759,0c-0.434,0 -0.818,0.296 -0.913,0.724c-3.273,13.544 -7.149,26.936 -11.614,40.135c-3.6,-13.534 -7.767,-26.912 -12.489,-40.097c-0.087,-0.443 -0.48,-0.764 -0.932,-0.762l-0.013,0l0.006,0Zm86.696,0.957l0,58.685c0,0.522 0.428,0.944 0.944,0.944l14.591,0c0.522,0 0.944,-0.422 0.944,-0.944l0,-58.685c0,-0.522 -0.422,-0.944 -0.944,-0.944l-14.434,0c-0.05,-0.008 -0.1,-0.012 -0.151,-0.012c-0.518,0 -0.944,0.426 -0.944,0.944l0,0.013l-0.006,0Zm-1.026,-16.322c0,3.286 0.441,5.697 2.014,7.214c1.561,1.511 3.985,1.888 7.201,1.888c3.21,0 5.64,-0.378 7.201,-1.888c1.574,-1.517 2.014,-3.928 2.014,-7.214c0,-2.958 -0.447,-5.162 -2.058,-6.54c-1.555,-1.322 -3.966,-1.649 -7.157,-1.649c-3.198,0 -5.602,0.327 -7.157,1.649c-1.611,1.372 -2.058,3.582 -2.058,6.54Zm85.362,15.365l-16.876,0c-0.315,0 -0.598,0.151 -0.774,0.403c-4.41,6.399 -8.996,12.675 -13.754,18.821c-2.637,3.349 -4.708,5.741 -6.238,7.226l0,-50.886c0,-0.522 -0.422,-0.944 -0.944,-0.944l-14.591,0c-0.522,0 -0.944,0.422 -0.944,0.944l0,84.078c0,0.522 0.422,0.944 0.944,0.944l14.591,0c0.522,0 0.944,-0.422 0.944,-0.944l0,-29.377c0.422,0.359 0.906,0.818 1.46,1.41c1.24,1.322 2.77,3.185 4.633,5.684c3.726,4.985 8.768,12.4 15.598,22.793c0.176,0.264 0.472,0.428 0.793,0.428l16.769,0c0.518,-0 0.943,-0.427 0.943,-0.944c0,-0.173 -0.048,-0.343 -0.138,-0.491c-5.52,-9.152 -10.506,-16.586 -14.528,-22.019c-2.014,-2.707 -3.796,-4.929 -5.288,-6.609c-0.838,-0.97 -1.738,-1.884 -2.694,-2.738c1.995,-1.788 4.551,-4.639 7.667,-8.504c4.556,-5.76 8.933,-11.658 13.124,-17.688c0.166,-0.175 0.258,-0.407 0.258,-0.648c0,-0.518 -0.426,-0.944 -0.944,-0.944l-0.013,0l0,0.006Z"
                  style="fill:currentColor;fill-opacity:0.1;fill-rule:nonzero;"/>
            <path id="Logotype-Fade-1" serif:id="Logotype Fade 1"
                  d="M253.521,182.008c0.522,0 0.944,-0.428 0.944,-0.944l0,-78.57c0.002,-0.408 -0.261,-0.772 -0.648,-0.9c-7.919,-2.562 -16.517,-3.84 -25.903,-3.84c-10.002,0 -17.43,2.329 -22.164,7.308l-0.006,0.013c-4.62,4.973 -6.798,13.552 -6.798,24.99c0,11.406 1.825,19.627 5.716,24.379c3.928,4.771 10.097,7 18.192,7c5.33,0.051 10.571,-1.383 15.132,-4.142l0,23.762c0,0.516 0.428,0.944 0.944,0.944l14.591,0Zm-15.548,-69.273l0,28.924c0,1.152 -0.862,2.392 -2.77,3.399c-1.87,0.988 -4.557,1.63 -7.654,1.63c-4.803,0 -7.774,-1.227 -9.467,-3.424c-0.856,-1.102 -1.53,-2.751 -1.989,-5.042c-0.46,-2.285 -0.686,-5.149 -0.686,-8.624c0,-3.689 0.258,-6.748 0.749,-9.197c0.485,-2.455 1.196,-4.236 2.058,-5.401c1.687,-2.279 4.866,-3.512 9.694,-3.512c3.67,0 7.025,0.39 10.071,1.246l-0.006,0Zm36.44,-13.364l-14.805,0c-0.516,0.002 -0.94,0.428 -0.94,0.944c0,0.112 0.02,0.223 0.059,0.327c6.647,17.77 12.841,37.264 18.582,58.603c0.113,0.407 0.485,0.691 0.906,0.692l17.109,0c0.403,0 0.755,-0.252 0.894,-0.629c4.037,-11.341 7.482,-22.885 10.323,-34.583c3.651,13.452 6.402,24.877 8.183,34.444c0.082,0.448 0.476,0.776 0.932,0.774l17.109,0c0.384,-0 0.732,-0.235 0.875,-0.592c7.72,-19.255 14.513,-38.869 20.357,-58.773c0.025,-0.086 0.038,-0.175 0.038,-0.264c0,-0.518 -0.426,-0.944 -0.944,-0.944l-14.352,0c-0.432,-0.002 -0.813,0.293 -0.919,0.711c-3.11,12.218 -7.22,25.537 -12.426,40.066c-3.14,-13.554 -6.936,-26.948 -11.374,-40.135c-0.129,-0.383 -0.49,-0.642 -0.894,-0.642l-12.759,0c-0.434,0 -0.818,0.296 -0.913,0.724c-3.273,13.544 -7.149,26.936 -11.614,40.135c-3.6,-13.534 -7.767,-26.912 -12.489,-40.097c-0.087,-0.443 -0.48,-0.764 -0.932,-0.762l-0.013,0l0.006,0Zm86.696,0.957l0,58.685c0,0.522 0.428,0.944 0.944,0.944l14.591,0c0.522,0 0.944,-0.422 0.944,-0.944l0,-58.685c0,-0.522 -0.422,-0.944 -0.944,-0.944l-14.434,0c-0.05,-0.008 -0.1,-0.012 -0.151,-0.012c-0.518,0 -0.944,0.426 -0.944,0.944l0,0.013l-0.006,0Zm-1.026,-16.322c0,3.286 0.441,5.697 2.014,7.214c1.561,1.511 3.985,1.888 7.201,1.888c3.21,0 5.64,-0.378 7.201,-1.888c1.574,-1.517 2.014,-3.928 2.014,-7.214c0,-2.958 -0.447,-5.162 -2.058,-6.54c-1.555,-1.322 -3.966,-1.649 -7.157,-1.649c-3.198,0 -5.602,0.327 -7.157,1.649c-1.611,1.372 -2.058,3.582 -2.058,6.54Zm85.362,15.365l-16.876,0c-0.315,0 -0.598,0.151 -0.774,0.403c-4.41,6.399 -8.996,12.675 -13.754,18.821c-2.637,3.349 -4.708,5.741 -6.238,7.226l0,-50.886c0,-0.522 -0.422,-0.944 -0.944,-0.944l-14.591,0c-0.522,0 -0.944,0.422 -0.944,0.944l0,84.078c0,0.522 0.422,0.944 0.944,0.944l14.591,0c0.522,0 0.944,-0.422 0.944,-0.944l0,-29.377c0.422,0.359 0.906,0.818 1.46,1.41c1.24,1.322 2.77,3.185 4.633,5.684c3.726,4.985 8.768,12.4 15.598,22.793c0.176,0.264 0.472,0.428 0.793,0.428l16.769,0c0.518,-0 0.943,-0.427 0.943,-0.944c0,-0.173 -0.048,-0.343 -0.138,-0.491c-5.52,-9.152 -10.506,-16.586 -14.528,-22.019c-2.014,-2.707 -3.796,-4.929 -5.288,-6.609c-0.838,-0.97 -1.738,-1.884 -2.694,-2.738c1.995,-1.788 4.551,-4.639 7.667,-8.504c4.556,-5.76 8.933,-11.658 13.124,-17.688c0.166,-0.175 0.258,-0.407 0.258,-0.648c0,-0.518 -0.426,-0.944 -0.944,-0.944l-0.013,0l0,0.006Z"
                  style="fill:currentColor;fill-opacity:0.2;fill-rule:nonzero;"/>
            <path id="Logotype"
                  d="M253.521,132.008c0.522,0 0.944,-0.428 0.944,-0.944l0,-78.57c0.002,-0.408 -0.261,-0.772 -0.648,-0.9c-7.919,-2.562 -16.517,-3.84 -25.903,-3.84c-10.002,0 -17.43,2.329 -22.164,7.308l-0.006,0.013c-4.62,4.973 -6.798,13.552 -6.798,24.99c0,11.406 1.825,19.627 5.716,24.379c3.928,4.771 10.097,7 18.192,7c5.33,0.051 10.571,-1.383 15.132,-4.142l0,23.762c0,0.516 0.428,0.944 0.944,0.944l14.591,0Zm-15.548,-69.273l0,28.924c0,1.152 -0.862,2.392 -2.77,3.399c-1.87,0.988 -4.557,1.63 -7.654,1.63c-4.803,0 -7.774,-1.227 -9.467,-3.424c-0.856,-1.102 -1.53,-2.751 -1.989,-5.042c-0.46,-2.285 -0.686,-5.149 -0.686,-8.624c0,-3.689 0.258,-6.748 0.749,-9.197c0.485,-2.455 1.196,-4.236 2.058,-5.401c1.687,-2.279 4.866,-3.512 9.694,-3.512c3.67,0 7.025,0.39 10.071,1.246l-0.006,-0Zm36.44,-13.364l-14.805,0c-0.516,0.002 -0.94,0.428 -0.94,0.944c0,0.112 0.02,0.223 0.059,0.327c6.647,17.77 12.841,37.264 18.582,58.603c0.113,0.407 0.485,0.691 0.906,0.692l17.109,0c0.403,0 0.755,-0.252 0.894,-0.629c4.037,-11.341 7.482,-22.885 10.323,-34.583c3.651,13.452 6.402,24.877 8.183,34.444c0.082,0.448 0.476,0.776 0.932,0.774l17.109,0c0.384,-0 0.732,-0.235 0.875,-0.592c7.72,-19.255 14.513,-38.869 20.357,-58.773c0.025,-0.086 0.038,-0.175 0.038,-0.264c0,-0.518 -0.426,-0.944 -0.944,-0.944l-14.352,0c-0.432,-0.002 -0.813,0.293 -0.919,0.711c-3.11,12.218 -7.22,25.537 -12.426,40.066c-3.14,-13.554 -6.936,-26.948 -11.374,-40.135c-0.129,-0.383 -0.49,-0.642 -0.894,-0.642l-12.759,0c-0.434,0 -0.818,0.296 -0.913,0.724c-3.273,13.544 -7.149,26.936 -11.614,40.135c-3.6,-13.534 -7.767,-26.912 -12.489,-40.097c-0.087,-0.443 -0.48,-0.764 -0.932,-0.762l-0.013,0l0.006,0Zm86.696,0.957l0,58.685c0,0.522 0.428,0.944 0.944,0.944l14.591,0c0.522,0 0.944,-0.422 0.944,-0.944l0,-58.685c0,-0.522 -0.422,-0.944 -0.944,-0.944l-14.434,0c-0.05,-0.008 -0.1,-0.012 -0.151,-0.012c-0.518,0 -0.944,0.426 -0.944,0.944l0,0.013l-0.006,0Zm-1.026,-16.322c0,3.286 0.441,5.697 2.014,7.214c1.561,1.511 3.985,1.888 7.201,1.888c3.21,0 5.64,-0.378 7.201,-1.888c1.574,-1.517 2.014,-3.928 2.014,-7.214c0,-2.958 -0.447,-5.162 -2.058,-6.54c-1.555,-1.322 -3.966,-1.649 -7.157,-1.649c-3.198,0 -5.602,0.327 -7.157,1.649c-1.611,1.372 -2.058,3.582 -2.058,6.54Zm85.362,15.365l-16.876,0c-0.315,0 -0.598,0.151 -0.774,0.403c-4.41,6.399 -8.996,12.675 -13.754,18.821c-2.637,3.349 -4.708,5.741 -6.238,7.226l0,-50.886c0,-0.522 -0.422,-0.944 -0.944,-0.944l-14.591,0c-0.522,0 -0.944,0.422 -0.944,0.944l0,84.078c0,0.522 0.422,0.944 0.944,0.944l14.591,0c0.522,0 0.944,-0.422 0.944,-0.944l0,-29.377c0.422,0.359 0.906,0.818 1.46,1.41c1.24,1.322 2.77,3.185 4.633,5.684c3.726,4.985 8.768,12.4 15.598,22.793c0.176,0.264 0.472,0.428 0.793,0.428l16.769,0c0.518,-0 0.943,-0.427 0.943,-0.944c0,-0.173 -0.048,-0.343 -0.138,-0.491c-5.52,-9.152 -10.506,-16.586 -14.528,-22.019c-2.014,-2.707 -3.796,-4.929 -5.288,-6.609c-0.838,-0.97 -1.738,-1.884 -2.694,-2.738c1.995,-1.788 4.551,-4.639 7.667,-8.504c4.556,-5.76 8.933,-11.658 13.124,-17.688c0.166,-0.175 0.258,-0.407 0.258,-0.648c0,-0.518 -0.426,-0.944 -0.944,-0.944l-0.013,0l0,0.006Z"
                  style="fill:currentColor;fill-rule:nonzero;"/>
        </g>
        <g id="Logomark">
            <path d="M133.236,123.357l-38.039,-41.501l5.407,32.506l-9.681,9.392l39.417,39.172l-3.55,-32.518l6.446,-7.031l0,-0.019Z"
                  style="fill:#fff;fill-rule:nonzero;"/>
            <path d="M149.168,181.337l-18.475,-18.38l-0.264,0.044l0,-0.189l-39.285,-38.863l9.7,-9.348l-5.703,-32.688l-26.998,33.488c-4.583,4.633 -5.464,12.205 -2.14,17.757l16.87,28.005c2.581,4.293 6.635,7.05 12.293,6.849c11.979,-0.422 17.247,-0.422 17.247,-0.422l36.742,13.729l0.013,0.013l0,0.006Z"
                  style="fill:#18b6f6;fill-rule:nonzero;"/>
            <path d="M158.295,129.834c2.663,-5.489 3.613,-10.292 0.988,-15.107l-3.733,-6.874l-1.939,-3.525l-0.755,-1.385l-0.063,0.088l-10.166,-17.625c-2.555,-4.455 -7.334,-7.191 -12.47,-7.138l-8.913,0.252l-26.595,0.069c-5.017,0.036 -9.66,2.717 -12.199,7.044l-16.158,32.09l28.918,-35.974l37.938,41.715l-6.798,6.88l4.06,32.632l0.057,-0.063l0,0.088l-0.063,0l0.088,0.082l3.16,3.084l15.296,14.944c0.648,0.617 1.687,-0.126 1.259,-0.894l-9.455,-18.613"
                  style="fill:#ac7ef4;fill-rule:nonzero;"/>
        </g>
    </g>
</svg>
