<?xml version="1.0" encoding="UTF-8" standalone="no"?><!DOCTYPE svg PUBLIC "-//W3C//DTD SVG 1.1//EN"
        "http://www.w3.org/Graphics/SVG/1.1/DTD/svg11.dtd">
<svg width="100%" height="100%" viewBox="0 0 512 256" version="1.1" xmlns="http://www.w3.org/2000/svg"
     xml:space="preserve"
     style="fill-rule:evenodd;clip-rule:evenodd;stroke-linejoin:round;stroke-miterlimit:2;">
    <rect id="Logo" x="0" y="0" width="512" height="256" style="fill:none;"/>
    <g id="Qwik">
        <path id="Logotype"
              d="M253.521,182.319c0.522,0 0.944,-0.428 0.944,-0.944l0,-78.57c0.002,-0.408 -0.261,-0.772 -0.648,-0.9c-7.919,-2.562 -16.517,-3.84 -25.903,-3.84c-10.002,0 -17.43,2.329 -22.164,7.308l-0.006,0.013c-4.62,4.973 -6.798,13.552 -6.798,24.99c0,11.406 1.825,19.627 5.716,24.379c3.928,4.771 10.097,7 18.192,7c5.33,0.051 10.571,-1.383 15.132,-4.142l0,23.762c0,0.516 0.428,0.944 0.944,0.944l14.591,0Zm-15.548,-69.273l0,28.924c0,1.152 -0.862,2.392 -2.77,3.399c-1.87,0.988 -4.557,1.63 -7.654,1.63c-4.803,0 -7.774,-1.227 -9.467,-3.424c-0.856,-1.102 -1.53,-2.751 -1.989,-5.042c-0.46,-2.285 -0.686,-5.149 -0.686,-8.624c0,-3.689 0.258,-6.748 0.749,-9.197c0.485,-2.455 1.196,-4.236 2.058,-5.401c1.687,-2.279 4.866,-3.512 9.694,-3.512c3.67,0 7.025,0.39 10.071,1.246l-0.006,0Zm36.44,-13.364l-14.805,0c-0.516,0.002 -0.94,0.428 -0.94,0.944c0,0.112 0.02,0.223 0.059,0.327c6.647,17.77 12.841,37.264 18.582,58.603c0.113,0.407 0.485,0.691 0.906,0.692l17.109,0c0.403,0 0.755,-0.252 0.894,-0.629c4.037,-11.341 7.482,-22.885 10.323,-34.583c3.651,13.452 6.402,24.877 8.183,34.444c0.082,0.448 0.476,0.776 0.932,0.774l17.109,0c0.384,-0 0.732,-0.235 0.875,-0.592c7.72,-19.255 14.513,-38.869 20.357,-58.773c0.025,-0.086 0.038,-0.175 0.038,-0.264c0,-0.518 -0.426,-0.944 -0.944,-0.944l-14.352,0c-0.432,-0.002 -0.813,0.293 -0.919,0.711c-3.11,12.218 -7.22,25.537 -12.426,40.066c-3.14,-13.554 -6.936,-26.948 -11.374,-40.135c-0.129,-0.383 -0.49,-0.642 -0.894,-0.642l-12.759,0c-0.434,0 -0.818,0.296 -0.913,0.724c-3.273,13.544 -7.149,26.936 -11.614,40.135c-3.6,-13.534 -7.767,-26.912 -12.489,-40.097c-0.087,-0.443 -0.48,-0.764 -0.932,-0.762l-0.013,0l0.006,0Zm86.696,0.957l0,58.685c0,0.522 0.428,0.944 0.944,0.944l14.591,0c0.522,0 0.944,-0.422 0.944,-0.944l0,-58.685c0,-0.522 -0.422,-0.944 -0.944,-0.944l-14.434,0c-0.05,-0.008 -0.1,-0.012 -0.151,-0.012c-0.518,0 -0.944,0.426 -0.944,0.944l0,0.013l-0.006,0Zm-1.026,-16.322c0,3.286 0.441,5.697 2.014,7.214c1.561,1.511 3.985,1.888 7.201,1.888c3.21,0 5.64,-0.378 7.201,-1.888c1.574,-1.517 2.014,-3.928 2.014,-7.214c0,-2.958 -0.447,-5.162 -2.058,-6.54c-1.555,-1.322 -3.966,-1.649 -7.157,-1.649c-3.198,0 -5.602,0.327 -7.157,1.649c-1.611,1.372 -2.058,3.582 -2.058,6.54Zm85.362,15.365l-16.876,0c-0.315,0 -0.598,0.151 -0.774,0.403c-4.41,6.399 -8.996,12.675 -13.754,18.821c-2.637,3.349 -4.708,5.741 -6.238,7.226l0,-50.886c0,-0.522 -0.422,-0.944 -0.944,-0.944l-14.591,0c-0.522,0 -0.944,0.422 -0.944,0.944l0,84.078c0,0.522 0.422,0.944 0.944,0.944l14.591,0c0.522,0 0.944,-0.422 0.944,-0.944l0,-29.377c0.422,0.359 0.906,0.818 1.46,1.41c1.24,1.322 2.77,3.185 4.633,5.684c3.726,4.985 8.768,12.4 15.598,22.793c0.176,0.264 0.472,0.428 0.793,0.428l16.769,0c0.518,-0 0.943,-0.427 0.943,-0.944c0,-0.173 -0.048,-0.343 -0.138,-0.491c-5.52,-9.152 -10.506,-16.586 -14.528,-22.019c-2.014,-2.707 -3.796,-4.929 -5.288,-6.609c-0.838,-0.97 -1.738,-1.884 -2.694,-2.738c1.995,-1.788 4.551,-4.639 7.667,-8.504c4.556,-5.76 8.933,-11.658 13.124,-17.688c0.166,-0.175 0.258,-0.407 0.258,-0.648c0,-0.518 -0.426,-0.944 -0.944,-0.944l-0.013,0l0,0.006Z"
              style="fill:currentColor;fill-rule:nonzero;"/>
        <g id="Logomark">
            <path id="Blue"
                  d="M98.664,89.304l5.408,32.512l-9.683,9.394l49.814,49.504c0,0 8.634,-0.833 0,0c-7.113,0.686 -16.435,0.686 -28.653,0.686c-51.55,0 -51.55,0 -51.55,-51.55c0,-5.703 0.07,-15.286 0.07,-15.286l34.594,-25.26Z"
                  style="fill:#18b6f6;"/>
            <path id="Purple"
                  d="M115.55,78.3c51.55,0 51.55,-0 51.55,51.55c0,20.736 0,33.13 -3.355,40.54c-3.009,6.645 -8.716,9.279 -19.542,10.324c-3.041,0.293 -0,-0 -0,-0l-10.389,-10.324l-3.551,-32.525l6.447,-7.033l-38.047,-41.528l-34.594,25.26c0,0 -0.026,1.692 -0,0c0.561,-36.264 5.633,-36.264 51.48,-36.264Z"
                  style="fill:#ac7ef4;"/>
            <path id="White"
                  d="M136.711,130.813l-38.047,-41.509l5.408,32.512l-9.683,9.394l39.425,39.18l-3.551,-32.525l6.447,-7.033l0,-0.019Z"
                  style="fill:currentColor;fill-rule:nonzero;"/>
        </g>
    </g>
</svg>
